<?xml version="1.0" standalone="no"?>
<!DOCTYPE svg PUBLIC "-//W3C//DTD SVG 1.1//EN" "http://www.w3.org/Graphics/SVG/1.1/DTD/svg11.dtd" >
<svg xmlns="http://www.w3.org/2000/svg">
<metadata></metadata>
<defs>
<font id="graublau_webbold" horiz-adv-x="1118" >
<font-face units-per-em="2048" ascent="1638" descent="-410" />
<missing-glyph horiz-adv-x="514" />
<glyph unicode="&#xfb01;" horiz-adv-x="1204" d="M23 868v252h118v105q0 218 113 344.5t340 126.5q105 0 202.5 -27.5t213.5 -79.5l-97 -239q-82 40 -159 64t-123 24q-75 0 -108.5 -53t-33.5 -160v-105h609v-1120h-348v868h-261v-868h-348v868h-118z" />
<glyph unicode="&#xfb02;" horiz-adv-x="1212" d="M23 868v252h118v105q0 471 465 471q250 0 500 -135v-1561h-348v1411q-81 29 -144 29q-72 0 -98.5 -53t-26.5 -166v-101h170v-252h-170v-868h-348v868h-118z" />
<glyph horiz-adv-x="2048" />
<glyph horiz-adv-x="2048" />
<glyph unicode="&#xd;" horiz-adv-x="2048" />
<glyph unicode=" "  horiz-adv-x="514" />
<glyph unicode="&#x09;" horiz-adv-x="514" />
<glyph unicode="&#xa0;" horiz-adv-x="514" />
<glyph unicode="!" horiz-adv-x="610" d="M174 176q0 80 58.5 139.5t144.5 59.5q83 0 139.5 -59.5t56.5 -139.5q0 -84 -58 -144.5t-138 -60.5q-85 0 -144 60t-59 145zM180 1522h367l-21 -1004h-327z" />
<glyph unicode="&#x22;" horiz-adv-x="825" d="M20 1518v243h349v-243l-43 -385h-265zM461 1518v243h344v-243l-41 -385h-266z" />
<glyph unicode="#" horiz-adv-x="1286" d="M72 256v281h168v262h-168v280h170v455h323v-455h160v455h330v-455h159v-278h-159v-264h155v-281h-153v-457h-326v457h-166v-457h-323v457h-170zM565 537h160v264h-160v-264z" />
<glyph unicode="$" horiz-adv-x="1021" d="M41 45l94 320q55 -31 144 -64t163 -33q66 0 104 29.5t38 81.5q0 42 -28 86t-72 85t-98 85t-108 96t-98 108.5t-72 131.5t-28 157q0 167 102.5 273t266.5 135l8 231h264l-21 -229q118 -20 238 -68l-88 -276q-136 66 -256 66q-66 0 -108 -27.5t-42 -79.5q0 -41 28 -83 t73 -82t99.5 -84t109 -96.5t99.5 -111t73 -136.5t28 -165q0 -174 -107 -277.5t-286 -129.5l-2 -281h-270l24 281q-168 15 -272 57z" />
<glyph unicode="%" horiz-adv-x="1402" d="M63 1186q0 143 89.5 239.5t238.5 96.5q147 0 231.5 -90t84.5 -246q0 -140 -98.5 -238t-233.5 -98q-139 0 -225.5 95.5t-86.5 240.5zM127 342l1008 1044l178 -200l-1012 -1045zM322 1186q0 -46 15 -74.5t46 -28.5q33 0 49.5 28.5t16.5 74.5q0 44 -17.5 72t-48.5 28 q-61 0 -61 -100zM713 311q0 142 89.5 238t237.5 96q149 0 233.5 -90t84.5 -244q0 -143 -93 -240.5t-233 -97.5q-139 0 -229 96.5t-90 241.5zM971 311q0 -47 16 -75.5t47 -28.5q66 0 66 104q0 43 -17.5 72t-48.5 29t-47 -28.5t-16 -72.5z" />
<glyph unicode="&#x26;" horiz-adv-x="1232" d="M49 379q0 134 59 233t162 179q-86 143 -86 311q0 198 110 310t320 112q198 0 318.5 -95.5t120.5 -252.5q0 -63 -23 -122.5t-66.5 -112.5t-89.5 -95t-110 -90q45 -47 108 -110t114 -112t142.5 -137t145.5 -141l-221 -272l-172 168q-90 -84 -187 -128t-225 -44 q-206 0 -313 109.5t-107 289.5zM391 395q0 -57 36.5 -105t84.5 -48q65 0 166 104q-76 72 -201 197q-86 -80 -86 -148zM522 1137q0 -70 51 -150q64 44 96.5 84t32.5 88q0 47 -27.5 72.5t-62.5 25.5q-38 0 -64 -34.5t-26 -85.5z" />
<glyph unicode="'" horiz-adv-x="387" d="M20 1518v243h349v-243l-43 -385h-265z" />
<glyph unicode="(" horiz-adv-x="698" d="M90 713q0 148 22.5 287.5t56 246.5t87.5 219.5t100 189t111 173.5l233 -139q-6 -15 -41 -89t-59 -128t-59.5 -152t-58 -184t-39.5 -198t-17 -218q0 -512 276 -1000l-241 -141q-52 66 -99 139t-98.5 182t-88.5 226t-61 270.5t-24 315.5z" />
<glyph unicode=")" horiz-adv-x="700" d="M-4 -283q51 102 82 167t73 172t65.5 197t40.5 210t17 242q0 90 -8.5 175t-17 147t-32 141t-35.5 118t-48 120t-48.5 106.5t-56.5 114.5q-21 43 -32 65l250 137q68 -99 113.5 -173t97.5 -183.5t83 -214.5t51.5 -246t20.5 -299q0 -146 -23 -286.5t-56.5 -248.5t-87.5 -225 t-99.5 -195.5t-109.5 -179.5z" />
<glyph unicode="*" horiz-adv-x="1071" d="M61 606l107 334l248 -147l-76 352h377l-64 -350l252 166l109 -332l-320 -68l246 -260l-283 -207l-125 299l-106 -305l-287 205l228 266z" />
<glyph unicode="+" horiz-adv-x="1071" d="M94 440v279h283v377h315v-377h283v-279h-283v-405h-315v405h-283z" />
<glyph unicode="," horiz-adv-x="593" d="M61 -246q69 75 99 127.5t30 104.5q0 27 -13.5 51.5t-29.5 42t-29.5 50t-13.5 73.5q0 79 56.5 129.5t140.5 50.5q107 0 167 -80.5t60 -208.5q0 -135 -69 -258.5t-203 -255.5z" />
<glyph unicode="-" horiz-adv-x="768" d="M61 516v281h646v-281h-646z" />
<glyph unicode="." horiz-adv-x="598" d="M109 176q0 80 58 139.5t144 59.5q83 0 140 -59.5t57 -139.5q0 -84 -58.5 -144.5t-138.5 -60.5q-84 0 -143 60t-59 145z" />
<glyph unicode="/" horiz-adv-x="854" d="M31 -156l528 1866l318 -104l-527 -1866z" />
<glyph unicode="0" horiz-adv-x="1128" d="M57 662q0 109 16 207.5t54.5 192.5t97.5 161.5t151.5 109t209.5 41.5q113 0 200 -40.5t140 -105t86.5 -155.5t46 -182t12.5 -195q0 -111 -15.5 -211.5t-53.5 -195.5t-95.5 -164t-148 -110.5t-205.5 -41.5q-82 0 -151.5 22t-119.5 59.5t-89.5 91t-64.5 113t-41.5 129.5 t-23 136.5t-6.5 137.5zM412 682q0 -426 159 -426q150 0 150 408q0 90 -8 163t-26 135.5t-50.5 97t-77.5 34.5q-43 0 -73 -31.5t-45.5 -91t-22 -129t-6.5 -160.5z" />
<glyph unicode="1" horiz-adv-x="770" d="M-4 1073l395 291h268v-1364h-350v942l-200 -119z" />
<glyph unicode="2" horiz-adv-x="919" d="M41 1292q178 82 360 82q221 0 330 -103.5t109 -281.5q0 -78 -23.5 -164t-55.5 -155t-82.5 -148.5t-86 -127t-84.5 -109.5h334v-285h-793v213q73 77 143.5 164t142 190t115.5 204.5t44 176.5q0 72 -40 110t-112 38q-107 0 -231 -62z" />
<glyph unicode="3" horiz-adv-x="911" d="M39 1321q68 26 156.5 40.5t162.5 14.5q202 0 321.5 -90.5t119.5 -267.5q0 -203 -172 -318q106 -36 163.5 -133.5t57.5 -228.5q0 -173 -86.5 -300t-232.5 -191t-332 -64q-90 0 -131 10v285q74 -8 110 -8q130 0 216.5 69t86.5 191q0 187 -239 174l-86 -2l-9 250l80 6 q93 11 152 63.5t59 134.5q0 66 -37 102t-94 36q-48 0 -88 -8.5t-106 -32.5z" />
<glyph unicode="4" horiz-adv-x="962" d="M2 506l287 899h325l-247 -840h153l60 350h247v-350h121v-280h-121v-285h-323v285h-428z" />
<glyph unicode="5" horiz-adv-x="882" d="M76 84q35 -6 82 -6q145 0 233 79t88 218q0 205 -219 205q-71 0 -176 -25l47 797h682v-254h-389l-16 -271q12 2 32 2q81 0 153 -29t129 -84t90.5 -144.5t33.5 -202.5q0 -184 -86.5 -317t-236 -199t-345.5 -66q-55 0 -102 8v289z" />
<glyph unicode="6" horiz-adv-x="1153" d="M78 631q0 159 23 291.5t77.5 249t139 197t213.5 127t294 46.5q69 0 127 -4l4 -291q-107 12 -191.5 2.5t-146.5 -45t-103.5 -107t-61.5 -182.5q83 46 198 46q190 0 303 -125.5t113 -356.5q0 -154 -68 -271t-180 -177t-248 -60q-105 0 -188.5 35t-140 95t-94 145t-54 180.5 t-16.5 204.5zM432 633q0 -377 150 -377q58 0 88 60t30 159q0 221 -137 221q-50 0 -131 -45v-18z" />
<glyph unicode="7" horiz-adv-x="827" d="M2 1069v283h784l31 -193l-418 -1329h-366l393 1239h-424z" />
<glyph unicode="8" horiz-adv-x="1083" d="M84 381q0 71 17.5 135t49.5 115.5t57.5 83.5t61.5 69q-166 148 -166 351q0 197 125.5 307t319.5 110q185 0 305.5 -102.5t120.5 -282.5q0 -181 -162 -366q87 -67 136.5 -157t49.5 -228q0 -112 -37 -199t-101.5 -140t-146.5 -79.5t-177 -26.5q-92 0 -173 26.5t-144 76.5 t-99.5 129.5t-36.5 177.5zM424 401q0 -74 33.5 -114.5t85.5 -40.5q47 0 84 38t37 105q0 69 -41 121.5t-117 105.5q-82 -118 -82 -215zM444 1165q0 -71 33 -121t96 -94q68 99 68 195q0 56 -28 99.5t-72 43.5q-43 0 -70 -32t-27 -91z" />
<glyph unicode="9" horiz-adv-x="1153" d="M78 872q0 154 68 271t179.5 177t247.5 60q105 0 189 -35t140 -95t94 -144.5t54.5 -180t16.5 -204.5q0 -159 -23 -291.5t-78 -249t-139.5 -197t-213.5 -127t-294 -46.5q-68 0 -126 4l-5 290q106 -13 190 -3.5t146.5 45t104 107.5t61.5 183q-81 -45 -196 -45 q-191 0 -303.5 125t-112.5 356zM444 877q0 -222 138 -222q54 0 131 43v21q0 377 -150 377q-58 0 -88.5 -60t-30.5 -159z" />
<glyph unicode=":" horiz-adv-x="587" d="M113 176q0 80 58 139.5t144 59.5q83 0 140 -59.5t57 -139.5q0 -84 -58.5 -144.5t-138.5 -60.5q-84 0 -143 60t-59 145zM113 950q0 80 58 139.5t144 59.5q83 0 140 -59.5t57 -139.5q0 -84 -58.5 -144.5t-138.5 -60.5q-84 0 -143 60t-59 145z" />
<glyph unicode=";" horiz-adv-x="587" d="M66 -246q69 75 99 127.5t30 104.5q0 27 -13.5 51.5t-29.5 42t-29.5 50t-13.5 73.5q0 79 56 129.5t140 50.5q107 0 167 -80.5t60 -208.5q0 -135 -69 -258.5t-203 -255.5zM111 950q0 80 58 139.5t144 59.5q83 0 140 -59.5t57 -139.5q0 -84 -58.5 -144.5t-138.5 -60.5 q-84 0 -143 60t-59 145z" />
<glyph unicode="&#x3c;" horiz-adv-x="833" d="M-29 588l682 653l191 -201l-443 -452l433 -443l-177 -219z" />
<glyph unicode="=" horiz-adv-x="1071" d="M94 211v281h881v-281h-881zM94 678v280h881v-280h-881z" />
<glyph unicode="&#x3e;" horiz-adv-x="1071" d="M100 1040l193 201l676 -653l-684 -662l-172 219l426 443z" />
<glyph unicode="?" horiz-adv-x="876" d="M90 1421q105 63 195.5 93t195.5 30q101 0 175 -27.5t115 -75.5t60 -105.5t19 -125.5q0 -80 -25 -148.5t-60.5 -119t-71 -99.5t-60.5 -111t-25 -132v-102h-346v125q0 91 24 167t58.5 125t69 91.5t58.5 86.5t24 89q0 42 -24.5 64t-68.5 22q-41 0 -84.5 -20t-119.5 -68z M236 176q0 80 59 139.5t145 59.5q83 0 140 -59.5t57 -139.5q0 -84 -58.5 -144.5t-138.5 -60.5q-85 0 -144.5 60t-59.5 145z" />
<glyph unicode="@" horiz-adv-x="1875" d="M63 508q0 232 68.5 425.5t189 324t286 202.5t358.5 72q177 0 332 -61t270 -171.5t181.5 -277.5t66.5 -367q0 -96 -15.5 -188t-53 -182.5t-93.5 -158t-144.5 -109.5t-199.5 -42q-46 0 -80.5 7.5t-54.5 17t-36.5 29t-24 32.5t-18.5 38q-1 4 -2.5 6.5t-2.5 5.5 q-111 -136 -254 -136q-82 0 -145 41.5t-99 110t-54 149.5t-18 168q0 284 132.5 451.5t336.5 167.5q169 0 342 -125v-596q0 -113 60 -113q102 0 102 383q0 144 -32 263.5t-94.5 209t-161.5 139.5t-226 50q-125 0 -233 -48t-189.5 -140t-128.5 -237.5t-47 -328.5 q0 -164 36 -302t105.5 -240.5t178 -160t245.5 -57.5q78 0 185.5 19t199.5 53l76 -252q-228 -76 -481 -76q-206 0 -370 72t-271.5 204t-164.5 317t-57 411zM848 487q0 -256 90 -256q22 0 44 18t34 44v512q-15 10 -41 10q-63 0 -95 -89t-32 -239z" />
<glyph unicode="A" horiz-adv-x="1273" d="M0 0l416 1522h418l438 -1522h-381l-100 360h-340l-101 -360h-350zM506 637h227l-117 633z" />
<glyph unicode="B" horiz-adv-x="1153" d="M125 0v1522h430q121 0 212 -21.5t148 -57.5t92 -89t48.5 -110.5t13.5 -127.5q0 -185 -129 -291q172 -121 172 -368q0 -108 -30.5 -189.5t-81.5 -132t-126 -81.5t-155 -42.5t-178 -11.5h-416zM473 274h92q86 0 131 45.5t45 153.5q0 104 -51.5 147.5t-128.5 43.5h-88v-390z M473 915h72q157 0 157 179q0 151 -151 151h-78v-330z" />
<glyph unicode="C" horiz-adv-x="1017" d="M55 743q0 134 19.5 249t67 220t120.5 179t187.5 117.5t261.5 43.5q126 0 288 -43l-45 -284q-130 39 -237 39q-154 0 -225.5 -118t-71.5 -366q0 -520 299 -520q51 0 121 12t127 35l34 -289q-149 -45 -303 -45q-112 0 -204.5 24t-158 65t-116 101t-81 125.5t-50 145 t-26.5 153.5t-7 156z" />
<glyph unicode="D" horiz-adv-x="1298" d="M121 0v1522h469q653 0 653 -752q0 -141 -24.5 -258t-76.5 -213t-130.5 -161.5t-190.5 -101.5t-252 -36h-448zM469 283h117q158 0 229.5 112t71.5 361q0 258 -74.5 370.5t-261.5 112.5h-82v-956z" />
<glyph unicode="E" horiz-adv-x="1062" d="M121 0v1522h856v-283h-508v-317h459v-281h-459v-358h537v-283h-885z" />
<glyph unicode="F" horiz-adv-x="919" d="M121 0v1522h819v-283h-471v-403h436v-281h-436v-555h-348z" />
<glyph unicode="G" horiz-adv-x="1251" d="M63 719q0 183 39.5 331.5t120 262.5t214 176.5t311.5 62.5q165 0 401 -77l-70 -285q-183 76 -336 76q-167 0 -240 -127.5t-73 -382.5q0 -498 275 -498q75 0 133 35v430h336v-614q-216 -138 -486 -138q-164 0 -285.5 54t-195 154.5t-109 235t-35.5 304.5z" />
<glyph unicode="H" horiz-adv-x="1366" d="M125 0v1522h352v-594h412v594h352v-1522h-352v649h-412v-649h-352z" />
<glyph unicode="I" horiz-adv-x="602" d="M125 0v1522h352v-1522h-352z" />
<glyph unicode="J" horiz-adv-x="737" d="M-45 227q58 15 95.5 28t78 34t65 48t46 67t30.5 94.5t9 126.5v897h348v-904q0 -116 -18 -208.5t-44 -157t-77 -115.5t-94 -81.5t-119 -57t-128.5 -39t-144.5 -31.5z" />
<glyph unicode="K" horiz-adv-x="1269" d="M121 0v1522h350v-627l346 627h455l-455 -650l486 -872h-449l-264 598l-119 -162v-436h-350z" />
<glyph unicode="L" horiz-adv-x="999" d="M121 0v1522h348v-1227h512v-295h-860z" />
<glyph unicode="M" horiz-adv-x="1630" d="M72 0l100 1522h309l332 -918l330 918h307l109 -1522h-353l-43 846l-289 -846h-163l-297 846l-37 -846h-305z" />
<glyph unicode="N" horiz-adv-x="1372" d="M121 0v1522h258l541 -828v828h333v-1522h-258l-540 846v-846h-334z" />
<glyph unicode="O" horiz-adv-x="1345" d="M59 741q0 122 19 233.5t65.5 218.5t116.5 185.5t180 126t248 47.5q133 0 238 -43t171.5 -114.5t110 -172t61 -208t17.5 -230.5q0 -127 -17.5 -238.5t-62.5 -219.5t-115 -184.5t-182.5 -123.5t-257.5 -47q-592 0 -592 770zM420 752q0 -248 58.5 -374t195.5 -126 q250 0 250 516q0 79 -4.5 141.5t-15 121t-29.5 101t-46.5 74.5t-67.5 48t-91 16q-73 0 -123.5 -37.5t-77.5 -110t-38 -161.5t-11 -209z" />
<glyph unicode="P" horiz-adv-x="1138" d="M117 0v1522h448q252 0 392.5 -127t140.5 -373q0 -241 -131.5 -380.5t-366.5 -139.5q-77 0 -131 12v-514h-352zM469 793q31 -15 72 -15q106 0 148 53t42 166q0 123 -46.5 182.5t-156.5 59.5h-59v-446z" />
<glyph unicode="Q" horiz-adv-x="1347" d="M59 741q0 122 19 233.5t65.5 218.5t116.5 185.5t180 126t248 47.5q133 0 238 -43t171.5 -114.5t110 -172t61 -208t17.5 -230.5q0 -152 -25 -280.5t-90.5 -247.5t-169.5 -188q64 -24 191.5 -72t196 -73t176.5 -61t181 -54t160 -32t160 -14q85 0 248 17l-33 -260 q-167 -15 -247 -15q-71 0 -145.5 7.5t-160.5 27.5t-154 36.5t-170 53t-162 57.5t-177 70t-168 70.5t-182 78t-174 75.5q-482 66 -482 761zM420 752q0 -248 58.5 -374t195.5 -126q250 0 250 516q0 79 -4.5 141.5t-15 121t-29.5 101t-46.5 74.5t-67.5 48t-91 16 q-73 0 -123.5 -37.5t-77.5 -110t-38 -161.5t-11 -209z" />
<glyph unicode="R" horiz-adv-x="1169" d="M121 0v1522h428q265 0 397.5 -111.5t132.5 -345.5q0 -301 -205 -422l259 -643h-410l-162 559q-31 -2 -92 -2v-557h-348zM469 829h11q120 0 176 42q58 44 57 167q-1 104 -41 154q-39 48 -113 47h-6h-84v-410z" />
<glyph unicode="S" horiz-adv-x="980" d="M23 57l86 316q194 -107 323 -107q65 0 105.5 31.5t40.5 87.5q0 46 -29.5 90t-77 82.5t-104.5 79.5t-114.5 90t-105 105.5t-77 134.5t-29.5 168q0 102 40.5 183t109.5 131.5t157 76.5t187 26q162 0 362 -75l-76 -283q-158 68 -268 68q-66 0 -106.5 -27t-40.5 -84 q0 -44 30 -85.5t77.5 -78t105.5 -76.5t116 -90t105.5 -108t77.5 -140.5t30 -179.5q0 -108 -41.5 -190t-113.5 -131t-161 -73t-192 -24q-99 0 -213.5 21.5t-203.5 60.5z" />
<glyph unicode="T" horiz-adv-x="1038" d="M-27 1239v283h1092v-283h-377v-1239h-346v1239h-369z" />
<glyph unicode="U" horiz-adv-x="1306" d="M117 492v1030h346v-961q0 -57 4 -97t16 -79t33 -62.5t57 -38t86 -14.5t84.5 15t54 38t30 63.5t13.5 78.5t3 96v961h346v-1026q0 -113 -32.5 -206.5t-98 -165.5t-173.5 -112.5t-251 -40.5q-142 0 -245 40.5t-161.5 114t-85 164t-26.5 202.5z" />
<glyph unicode="V" horiz-adv-x="1253" d="M-25 1522h381l283 -981l274 981h365l-537 -1522h-227z" />
<glyph unicode="W" horiz-adv-x="1683" d="M4 1522h365l116 -891l242 891h256l250 -891l115 891h329l-264 -1522h-278l-297 913l-291 -913h-279z" />
<glyph unicode="X" horiz-adv-x="1241" d="M6 0l379 778l-365 744h426l197 -455l188 455h388l-371 -719l405 -803h-426l-217 494l-219 -494h-385z" />
<glyph unicode="Y" horiz-adv-x="1136" d="M-51 1522h387l244 -670l249 670h361l-442 -1014v-508h-349v489z" />
<glyph unicode="Z" horiz-adv-x="1032" d="M27 233l530 990h-506v299h907l56 -215l-539 -1008h533v-299h-930z" />
<glyph unicode="[" horiz-adv-x="620" d="M55 -307v2136h545v-256h-256v-1624h256v-256h-545z" />
<glyph unicode="\" horiz-adv-x="647" d="M-117 1606l328 106l530 -1868l-329 -106z" />
<glyph unicode="]" horiz-adv-x="618" d="M20 -51h252v1624h-252v256h545v-2136h-545v256z" />
<glyph unicode="^" horiz-adv-x="1089" d="M-68 571l486 1045h258l483 -1045h-364l-254 621l-244 -621h-365z" />
<glyph unicode="_" horiz-adv-x="894" d="M-45 -27h989v-231h-989v231z" />
<glyph unicode="`" horiz-adv-x="227" d="M-152 1583l279 152l213 -398l-209 -90z" />
<glyph unicode="a" horiz-adv-x="966" d="M47 295q0 88 36 152.5t103 103.5t148.5 59.5t187.5 27.5v138q0 113 -110 113q-93 0 -256 -66l-68 250q218 76 389 76q112 0 190 -28.5t120 -82t59.5 -117t17.5 -145.5v-411q0 -122 31 -365h-279l-28 111q-5 -4 -32.5 -24t-38 -27t-37 -24t-44.5 -24t-44.5 -17t-53 -14 t-55.5 -4q-116 0 -176 91.5t-60 226.5zM348 342q0 -57 24 -90t60 -33q35 0 92 47v187q-41 -4 -66 -8.5t-53.5 -16t-42.5 -33t-14 -53.5z" />
<glyph unicode="b" horiz-adv-x="1101" d="M104 98v1567h349v-573q40 25 103.5 41t125.5 16q371 0 371 -541q0 -111 -17 -205t-55 -174.5t-95.5 -137t-143 -88.5t-193.5 -32q-139 0 -241.5 31t-203.5 96zM453 285q42 -29 92 -29q81 0 114 81.5t33 242.5q0 158 -25.5 221t-97.5 63q-26 0 -60.5 -10.5t-55.5 -30.5 v-538z" />
<glyph unicode="c" horiz-adv-x="833" d="M51 547q0 312 126 453t366 141q148 0 266 -43l-59 -277q-93 49 -183 49q-78 0 -119.5 -63.5t-41.5 -224.5q0 -164 44 -249t125 -85q37 0 88 17t91 38l61 -254q-59 -32 -147.5 -52t-175.5 -20q-441 0 -441 570z" />
<glyph unicode="d" horiz-adv-x="1103" d="M53 543q0 135 28.5 244t86 190.5t151.5 126.5t218 45q51 0 116 -6v522h348v-1618q-2 -1 -31 -8.5t-40 -10.5t-42 -11t-50.5 -11.5t-51.5 -10t-58.5 -10t-58 -7.5t-63.5 -5.5t-63 -1.5q-490 0 -490 572zM414 565q0 -161 33 -240t104 -79q35 0 102 16v582q-45 20 -92 20 q-83 0 -115 -73t-32 -226z" />
<glyph unicode="e" horiz-adv-x="940" d="M57 559q0 590 437 590q110 0 191.5 -38.5t127 -107.5t67 -153t21.5 -186q0 -96 -14 -179h-527q13 -141 58 -195t139 -54q89 0 252 75l76 -248q-189 -92 -371 -92q-104 0 -184 30t-131 81t-83.5 127t-45.5 161t-13 189zM354 690h234v16q0 100 -24 154q-26 58 -95 58 q-56 0 -83.5 -53.5t-31.5 -174.5z" />
<glyph unicode="f" horiz-adv-x="671" d="M23 868v252h116v125q0 235 98.5 343t319.5 108q164 0 309 -49l-65 -246q-81 37 -187 37q-76 0 -101.5 -42.5t-25.5 -150.5v-125h205v-252h-205v-868h-348v868h-116z" />
<glyph unicode="g" horiz-adv-x="931" d="M27 -254q0 57 15 109t45.5 98t49.5 69t53 60q-49 62 -49 160q0 57 15.5 98.5t48.5 87.5q-135 98 -135 326q0 205 101 300t275 95q69 0 148 -21q39 58 60.5 87.5t56.5 69.5t72 65t81 41l121 -234q-153 -46 -219 -147q76 -102 76 -260q0 -102 -30 -178.5t-84.5 -121.5 t-123.5 -66.5t-153 -21.5h-33q-8 -24 -8 -57t29 -57.5t75.5 -42.5t102.5 -37.5t112 -49t102.5 -68.5t75.5 -105.5t29 -151.5t-28.5 -150.5t-74 -104.5t-109.5 -64t-127 -34t-134 -9q-436 0 -436 315zM301 -184q0 -78 45.5 -119t112.5 -41q69 0 115.5 24.5t46.5 83.5 q0 29 -12 53t-27 40t-46.5 33.5t-52 26t-63.5 25.5t-62 25q-57 -100 -57 -151zM344 758q0 -86 30.5 -127t82.5 -41q49 0 79.5 38.5t30.5 123.5t-31 126.5t-83 41.5q-53 0 -81 -42.5t-28 -119.5z" />
<glyph unicode="h" d="M106 0v1667h349l-19 -633q67 45 160 80t160 35q122 0 193 -88.5t71 -278.5v-782h-348v719q0 64 -18 93.5t-58 29.5q-62 0 -141 -72v-770h-349z" />
<glyph unicode="i" horiz-adv-x="565" d="M88 1479q0 79 56 136.5t137 57.5t138.5 -57.5t57.5 -136.5q0 -80 -57 -136.5t-139 -56.5q-81 0 -137 56.5t-56 136.5zM109 0v1120h350v-1120h-350z" />
<glyph unicode="j" horiz-adv-x="565" d="M-154 -270q64 18 101 32.5t72.5 38.5t52.5 57t27 83t10 122v1057h350v-1030q0 -104 -10 -181t-34.5 -144t-63.5 -114.5t-100.5 -86.5t-142.5 -67t-192 -50zM84 1479q0 79 55.5 136.5t136.5 57.5t139 -57.5t58 -136.5q0 -80 -57.5 -136.5t-139.5 -56.5q-81 0 -136.5 56.5 t-55.5 136.5z" />
<glyph unicode="k" horiz-adv-x="1067" d="M104 0v1665h349v-721l-17 -246l236 422h411l-370 -487l379 -633h-408l-180 360l-68 -88v-272h-332z" />
<glyph unicode="l" horiz-adv-x="565" d="M106 0v1665h353v-1665h-353z" />
<glyph unicode="m" horiz-adv-x="1677" d="M104 0v1120h308l18 -100q183 129 324 129q169 0 225 -131q186 131 338 131q64 0 110 -17t81 -56t52 -106.5t17 -164.5v-805h-348v731q0 61 -18 86t-56 25q-57 0 -141 -74v-768h-348v729q0 63 -17 88t-55 25q-62 0 -141 -72v-770h-349z" />
<glyph unicode="n" d="M104 0v1120h308l18 -100q183 129 326 129q132 0 197 -77t65 -267v-805h-348v729q0 62 -18 87.5t-56 25.5q-64 0 -143 -72v-770h-349z" />
<glyph unicode="o" horiz-adv-x="1071" d="M53 551q0 134 27.5 240t85 188t154.5 126t229 44q105 0 186 -29.5t134 -80.5t87 -125t48 -156t14 -180q0 -135 -28.5 -244t-87 -191t-154 -127t-222.5 -45q-125 0 -217 42t-147.5 121t-82 182.5t-26.5 234.5zM403 573q0 -176 33 -254.5t103 -78.5q68 0 98.5 80t30.5 245 q0 164 -31 241t-100 77q-70 0 -102 -71t-32 -239z" />
<glyph unicode="p" horiz-adv-x="1103" d="M102 -543v1618q1 0 31.5 8.5t40 10.5t42 10.5t50.5 12t51.5 10t59 10t58 7.5t64 5.5t62.5 1.5q490 0 490 -571q0 -135 -28.5 -244t-86 -191t-151.5 -127t-218 -45q-44 0 -116 7v-523h-349zM451 279q47 -21 92 -21q83 0 115 73t32 226q0 161 -33 240.5t-104 79.5 q-31 0 -102 -17v-581z" />
<glyph unicode="q" horiz-adv-x="1103" d="M53 514q0 111 17 205t55 174.5t95.5 137t143 88.5t193.5 32q139 0 241 -31t203 -96v-1567h-348v574q-41 -25 -104 -41.5t-125 -16.5q-371 0 -371 541zM414 543q0 -158 25.5 -221.5t97.5 -63.5q26 0 60.5 10.5t55.5 30.5v539q-41 28 -92 28q-81 0 -114 -81.5t-33 -241.5z " />
<glyph unicode="r" horiz-adv-x="833" d="M106 0v1120h340v-172q84 118 165 161q58 31 136 31q31 0 64 -5l-16 -314q-33 3 -66 4h-4q-31 0 -67 -14q-38 -15 -72.5 -40.5t-71.5 -76.5t-68 -121v-573h-340z" />
<glyph unicode="s" horiz-adv-x="815" d="M37 31l74 278q139 -73 231 -73q39 0 59.5 18t20.5 49q0 28 -20 54t-52 48.5t-71 48t-77.5 58t-70.5 71t-52 95t-20 123.5q0 112 54.5 193t142.5 120t199 39q144 0 290 -45l-53 -266q-106 47 -198 47q-38 0 -58 -17.5t-20 -48.5q0 -30 20 -57t52 -49.5t70.5 -47t77 -56.5 t70.5 -71.5t52 -99t20 -131.5q0 -116 -52.5 -194t-137.5 -112t-199 -34q-178 0 -352 60z" />
<glyph unicode="t" horiz-adv-x="710" d="M14 868v252h109v344l348 82v-426h203v-252h-203v-487q0 -60 20.5 -84.5t59.5 -24.5q36 0 117 21l45 -287q-108 -33 -242 -33q-189 0 -268.5 83t-79.5 272v540h-109z" />
<glyph unicode="u" d="M102 315v805h349v-729q0 -62 17.5 -87t55.5 -25q66 0 144 71v770h348v-1120h-307l-19 98q-183 -127 -325 -127q-65 0 -111.5 17t-81.5 56.5t-52.5 106.5t-17.5 164z" />
<glyph unicode="v" horiz-adv-x="993" d="M-37 1120h389l166 -610l146 610h366l-393 -1120h-266z" />
<glyph unicode="w" horiz-adv-x="1380" d="M-10 1120h358l88 -614l158 614h233l164 -610l68 610h334l-256 -1120h-234l-203 666l-204 -666h-236z" />
<glyph unicode="x" horiz-adv-x="1062" d="M8 0l266 580h41l-284 540h397l147 -280l103 280h360l-266 -579l-37 -2l285 -539h-397l-150 283l-104 -283h-361z" />
<glyph unicode="y" horiz-adv-x="987" d="M-25 1120h371l170 -760l154 760h360l-323 -1124q-32 -111 -77.5 -198.5t-92 -143.5t-109 -100t-115 -68.5t-123.5 -48.5l-124 278q119 53 196 129.5t111 186.5l22 73h-121z" />
<glyph unicode="z" horiz-adv-x="790" d="M31 211l336 649h-318v260h684l29 -209l-350 -649h348v-262h-717z" />
<glyph unicode="{" horiz-adv-x="565" d="M-18 684v199q92 3 141 67.5t49 175.5v340q0 52 8 97t19.5 78t32 60.5t38.5 46t46 33.5t47 23.5t50 16t46 10t43 6.5l37 -209q-52 -9 -72.5 -48.5t-20.5 -131.5v-348q0 -138 -52.5 -218t-108.5 -94q69 -34 115 -120t46 -217v-390q0 -141 117 -174l-51 -209 q-125 26 -181 56q-158 87 -159 321v283q0 68 -4 115t-15.5 92t-32 72.5t-55 45t-83.5 21.5z" />
<glyph unicode="|" horiz-adv-x="589" d="M129 -236v1901h332v-1901h-332z" />
<glyph unicode="}" horiz-adv-x="565" d="M2 1630l55 209q3 -1 10 -2q124 -27 182 -61q146 -85 146 -312v-282q0 -69 3.5 -116t15 -92t32 -72.5t55 -45.5t83.5 -22v-199q-90 -3 -139.5 -68.5t-49.5 -175.5v-338q0 -52 -8 -97t-19.5 -77.5t-32.5 -60.5t-38.5 -46t-46 -33.5t-47 -23.5t-49.5 -15.5t-45.5 -10 t-42.5 -6.5l-37 208q52 9 73 48.5t21 132.5v348q0 138 52 217.5t106 91.5q-66 37 -112 123t-46 217v387q0 139 -121 174z" />
<glyph unicode="~" horiz-adv-x="999" d="M18 682q157 147 312 147q55 0 108.5 -21.5t89 -47t79 -47t81.5 -21.5q89 0 201 99l96 -230q-45 -55 -132.5 -104t-184.5 -49q-55 0 -108 21t-87.5 46.5t-79.5 46.5t-86 21q-116 0 -203 -84z" />
<glyph unicode="&#xa1;" horiz-adv-x="505" d="M53 950q0 80 58.5 139.5t144.5 59.5q83 0 140 -59.5t57 -139.5q0 -84 -58.5 -144.5t-138.5 -60.5q-85 0 -144 60t-59 145zM57 -399l19 999h330l20 -999h-369z" />
<glyph unicode="&#xa2;" horiz-adv-x="884" d="M59 555q0 215 83.5 360t234.5 201v227h293v-204q79 -14 172 -60l-76 -284q-101 69 -188 69q-152 0 -152 -280q0 -153 42.5 -240.5t123.5 -87.5q42 0 91 17t85 44l76 -274q-87 -44 -174 -61v-242h-293v260q-155 55 -236.5 200t-81.5 355z" />
<glyph unicode="&#xa3;" horiz-adv-x="1054" d="M74 668v264h155v119q0 210 134 352.5t323 142.5q166 0 346 -65l-74 -256q-115 55 -210 55q-88 0 -135.5 -66.5t-47.5 -173.5v-108h232v-264h-232v-86q0 -99 -13.5 -186t-33.5 -124h488v-272h-893l-31 211q75 64 111 152.5t36 238.5v66h-155z" />
<glyph unicode="&#xa4;" horiz-adv-x="1101" d="M55 467v248h119v24q0 51 2 76h-121v250h154q26 108 70.5 194.5t111 153t161 103t210.5 36.5q141 0 309 -69l-88 -285q-123 68 -195 68q-35 0 -62 -6.5t-57.5 -25.5t-55 -61.5t-40.5 -107.5h291v-250h-317v-100h317v-248h-289q52 -211 197 -211q87 0 229 68l86 -279 q-192 -74 -348 -74q-227 0 -361 132t-179 364h-144z" />
<glyph unicode="&#xa5;" horiz-adv-x="1230" d="M66 1520h360l190 -609l183 609h366l-237 -516l10 6h205v-248h-326l-47 -103h373v-247h-355v-416h-350v416h-354v247h377l-47 103h-330v248h209l10 -9z" />
<glyph unicode="&#xa6;" horiz-adv-x="589" d="M129 -238v824h332v-824h-332zM129 897v770h332v-770h-332z" />
<glyph unicode="&#xa7;" horiz-adv-x="1017" d="M72 635q0 97 47 167t137 124q-100 132 -100 278q0 160 107 248t308 88q142 0 306 -53l-82 -236q-35 17 -99.5 28t-109.5 11q-61 0 -96 -22.5t-35 -65.5q0 -42 27.5 -86.5t72 -86t98 -87t106.5 -96.5t97.5 -105.5t72 -123t27.5 -140.5q0 -90 -41 -158t-127 -124 q82 -119 82 -244q0 -162 -113.5 -247t-299.5 -85q-79 0 -171.5 15t-162.5 44l84 240q100 -49 215 -49q64 0 94.5 20t30.5 64q0 40 -26 82t-68 81t-92.5 80.5t-101.5 88.5t-93 98t-68 116.5t-26 135.5zM375 631q0 -13 3.5 -26.5t8 -25t15 -26t17.5 -24t23.5 -24.5t25.5 -23.5 t30 -25t30.5 -24t34 -26t33.5 -25.5q51 55 51 102q0 15 -3.5 30t-12 30.5t-16 28.5t-24 30.5t-26.5 28t-32.5 30.5t-33.5 29.5t-37.5 32t-37.5 31.5q-49 -74 -49 -123z" />
<glyph unicode="&#xa8;" horiz-adv-x="749" d="M-29 1454q0 77 51.5 128.5t129.5 51.5q72 0 124 -54t52 -126q0 -75 -52.5 -126.5t-123.5 -51.5q-78 0 -129.5 51.5t-51.5 126.5zM426 1454q0 73 49 126.5t123 53.5q77 0 130.5 -54t53.5 -126q0 -75 -53.5 -126.5t-130.5 -51.5q-73 0 -122.5 51.5t-49.5 126.5z" />
<glyph unicode="&#xa9;" horiz-adv-x="2236" d="M90 614q0 243 75 459t207.5 375t326 251.5t419.5 92.5q183 0 345.5 -59.5t286 -167.5t213.5 -254t136.5 -324t46.5 -373t-46.5 -374t-136.5 -325t-213.5 -254.5t-286 -168t-345.5 -59.5q-182 0 -343 57.5t-285.5 163.5t-214.5 251t-137.5 326t-47.5 383zM393 612 q0 -258 90.5 -462.5t256 -320.5t378.5 -116q160 0 296.5 70.5t230 192t146 286t52.5 350.5q0 185 -53 350t-146.5 286.5t-230 192t-295.5 70.5t-295.5 -70.5t-230 -192t-146.5 -286.5t-53 -350zM584 625q0 140 47.5 258t125.5 194t175.5 118t200.5 42q99 0 183.5 -24 t201.5 -85l-97 -270q-107 58 -154.5 76t-105.5 18q-37 0 -73 -15.5t-71.5 -50t-57 -101.5t-21.5 -158q0 -101 23.5 -178t59.5 -116.5t70 -58t64 -18.5q71 0 123.5 16t153.5 68l98 -262q-51 -27 -76 -39t-78.5 -32.5t-112.5 -29t-130 -8.5q-117 0 -216.5 43t-174 124 t-116.5 206.5t-42 282.5z" />
<glyph unicode="&#xaa;" horiz-adv-x="698" d="M2 942q0 252 338 277v41q0 32 -17.5 53.5t-43.5 21.5q-77 0 -199 -53l-53 207q185 65 315 65q135 0 209 -84.5t74 -212.5v-344q0 -78 12 -192h-244l-14 74q-3 -3 -20.5 -17.5t-22 -18t-20 -15.5t-22.5 -15.5t-21 -11.5t-24 -11t-23 -5.5t-25 -2.5q-98 0 -148.5 70 t-50.5 174zM20 356v252h639v-252h-639zM254 971q0 -56 20 -56t66 46v100q-27 -2 -56.5 -27t-29.5 -63z" />
<glyph unicode="&#xab;" horiz-adv-x="1083" d="M55 565l316 490l233 -74l-201 -416l207 -426l-239 -63zM487 565l301 439l220 -72l-170 -363l172 -374l-240 -66z" />
<glyph unicode="&#xac;" horiz-adv-x="1003" d="M-8 541v278h1020v-641h-273l-2 363h-745z" />
<glyph unicode="&#xad;" horiz-adv-x="768" d="M66 516v281h645v-281h-645z" />
<glyph unicode="&#xae;" horiz-adv-x="2236" d="M90 614q0 243 75 459t207.5 375t326 251.5t419.5 92.5q183 0 345.5 -59.5t286 -167.5t213.5 -254t136.5 -324t46.5 -373t-46.5 -374t-136.5 -325t-213.5 -254.5t-286 -168t-345.5 -59.5q-182 0 -343 57.5t-285.5 163.5t-214.5 251t-137.5 326t-47.5 383zM393 612 q0 -258 90.5 -462.5t256 -320.5t378.5 -116q160 0 296.5 70.5t230 192t146 286t52.5 350.5q0 185 -53 350t-146.5 286.5t-230 192t-295.5 70.5t-295.5 -70.5t-230 -192t-146.5 -286.5t-53 -350zM719 -6v1235h352q125 0 218 -30t146 -83t78 -119t25 -145q0 -210 -162 -324 l193 -534h-324l-123 452q-37 -2 -90 5v-457h-313zM1032 672q36 -3 69.5 3t63.5 22.5t48 51.5t18 85q0 79 -36 117t-122 38h-41v-317z" />
<glyph unicode="&#xaf;" horiz-adv-x="559" d="M-55 1284v232h676v-232h-676z" />
<glyph unicode="&#xb0;" horiz-adv-x="796" d="M27 1339q0 164 108.5 278t265.5 114q161 0 270 -113.5t109 -278.5q0 -166 -109 -279.5t-270 -113.5q-163 0 -268.5 111.5t-105.5 281.5zM264 1339q0 -82 38.5 -134t98.5 -52q63 0 103.5 52t40.5 134q0 81 -40.5 132t-103.5 51q-60 0 -98.5 -51t-38.5 -132z" />
<glyph unicode="&#xb1;" horiz-adv-x="1071" d="M94 0v281h881v-281h-881zM94 719v270h283v357h315v-357h283v-270h-283v-340h-315v340h-283z" />
<glyph unicode="&#xb2;" horiz-adv-x="647" d="M33 788q109 125 193.5 252t84.5 205q0 72 -43 72q-28 0 -57.5 -8t-48.5 -16.5t-60 -28.5l-59 211q151 67 272 67q277 0 277 -272q0 -193 -195 -416h211v-209h-551z" />
<glyph unicode="&#xb3;" horiz-adv-x="614" d="M23 659l59 220q103 -29 133 -29q84 0 84 72q0 38 -27.5 60t-81.5 22h-92l-6 182h58q49 2 84.5 27t35.5 69q0 51 -49 51q-40 0 -129 -47l-67 193q133 73 276 73q120 0 192 -53t72 -162q0 -117 -92 -192q115 -53 115 -211q0 -143 -98.5 -222t-260.5 -79q-104 0 -206 26z " />
<glyph unicode="&#xb4;" horiz-adv-x="227" d="M-113 1337l240 396l240 -158l-297 -328z" />
<glyph unicode="&#xb6;" horiz-adv-x="1187" d="M-59 1155q0 87 16.5 161t60 144t111 118.5t177 78t251.5 29.5h528v-1895h-329v1610h-170q-136 0 -218.5 -53t-82.5 -166q0 -69 24.5 -117t73 -75.5t110.5 -39.5t146 -12v-1147h-326v885q-123 23 -209 99t-124.5 173t-38.5 207z" />
<glyph unicode="&#xb7;" horiz-adv-x="499" d="M59 739q0 80 58.5 139.5t144.5 59.5q83 0 140 -59.5t57 -139.5q0 -84 -58.5 -144t-138.5 -60q-85 0 -144 59.5t-59 144.5z" />
<glyph unicode="&#xb8;" horiz-adv-x="520" d="M29 -541l45 168q70 -18 104 -18q43 0 68.5 16t25.5 47q0 73 -133 82l25 258l186 -2l-16 -131q162 -61 162 -215q0 -62 -25 -107.5t-68 -71t-93.5 -37t-108.5 -11.5q-89 0 -172 22z" />
<glyph unicode="&#xb9;" horiz-adv-x="620" d="M10 1339l312 207h215v-897h-277l8 596l-188 -92z" />
<glyph unicode="&#xba;" horiz-adv-x="811" d="M14 1135q0 40 8.5 88t34 108.5t65 108.5t108.5 81t157 33q67 0 122.5 -17t92 -44t64.5 -65t43 -75t24.5 -79.5t12 -73t2.5 -61.5q0 -51 -10 -105t-36 -114t-66 -106t-106.5 -76.5t-150.5 -30.5q-87 0 -155 32t-106.5 78.5t-63 108t-32.5 112t-8 97.5zM51 356v252h725 v-252h-725zM317 1141q0 -67 17 -129t51 -62q64 0 64 183q0 58 -18 119t-50 61q-64 0 -64 -172z" />
<glyph unicode="&#xbb;" horiz-adv-x="1091" d="M76 936l239 63l285 -436l-297 -434l-225 74l172 358zM477 987l240 68l319 -490l-319 -489l-232 74l199 415z" />
<glyph unicode="&#xbc;" horiz-adv-x="1652" d="M6 1339l311 207h215v-897h-276l10 596l-190 -92zM299 203l954 1380l211 -197l-960 -1376zM995 362l187 539h266l-176 -512h82l67 232h146v-232h78v-211h-78v-178h-271v178h-229z" />
<glyph unicode="&#xbd;" horiz-adv-x="1716" d="M6 1339l311 207h215v-897h-276l10 596l-190 -92zM272 203l955 1380l211 -197l-961 -1376zM1098 141q108 124 193 252.5t85 206.5q0 72 -43 72q-28 0 -58 -8.5t-47.5 -16.5t-60.5 -29l-59 211q153 68 272 68q277 0 277 -272q0 -193 -195 -416h211v-209h-551z" />
<glyph unicode="&#xbe;" horiz-adv-x="1622" d="M23 659l59 220q103 -29 133 -29q84 0 84 72q0 38 -27.5 60t-81.5 22h-92l-6 182h58q49 2 84.5 27t35.5 69q0 51 -49 51q-40 0 -129 -47l-67 193q133 73 276 73q120 0 192 -53t72 -162q0 -117 -92 -192q115 -53 115 -211q0 -143 -98.5 -222t-260.5 -79q-104 0 -206 26z M248 203l954 1380l211 -197l-960 -1376zM965 362l184 539h266l-176 -512h82l70 232h143l2 -232h76v-211h-76v-178h-270v178h-232z" />
<glyph unicode="&#xbf;" horiz-adv-x="876" d="M90 -90q0 80 25 148.5t60.5 119t71 99.5t60.5 111t25 132v103h346v-125q0 -91 -24 -167t-58.5 -125t-69 -91.5t-58.5 -86.5t-24 -89q0 -42 24.5 -64t68.5 -22q41 0 84.5 20t119.5 68l109 -242q-105 -63 -195.5 -93t-195.5 -30q-101 0 -175 27.5t-115 75.5t-60 105.5 t-19 125.5zM303 944q0 84 58.5 144.5t138.5 60.5q85 0 145 -60t60 -145q0 -80 -59.5 -139.5t-145.5 -59.5q-83 0 -140 59.5t-57 139.5z" />
<glyph unicode="&#xc0;" horiz-adv-x="1271" d="M-2 0l416 1522h417l439 -1522h-381l-101 360h-339l-101 -360h-350zM338 1960l276 151l215 -397l-211 -90zM504 637h227l-117 633z" />
<glyph unicode="&#xc1;" horiz-adv-x="1271" d="M-2 0l416 1522h417l439 -1522h-381l-101 360h-339l-101 -360h-350zM430 1714l238 395l243 -157l-299 -328zM504 637h227l-117 633z" />
<glyph unicode="&#xc2;" horiz-adv-x="1271" d="M-2 0l416 1522h417l439 -1522h-381l-101 360h-339l-101 -360h-350zM250 1726l368 349l381 -334l-170 -131l-208 162l-209 -162zM504 637h227l-117 633z" />
<glyph unicode="&#xc3;" horiz-adv-x="1271" d="M-2 0l416 1522h417l439 -1522h-381l-101 360h-339l-101 -360h-350zM260 1765q136 136 266 136q49 0 108.5 -27t96.5 -27q52 0 131 66l127 -131q-128 -160 -270 -160q-59 0 -117 27.5t-88 27.5q-48 0 -139 -65zM504 637h227l-117 633z" />
<glyph unicode="&#xc4;" horiz-adv-x="1271" d="M-2 0l416 1522h417l439 -1522h-381l-101 360h-339l-101 -360h-350zM174 1823q0 79 58.5 133.5t138.5 54.5q82 0 137 -55.5t55 -132.5q0 -80 -57 -133.5t-135 -53.5q-84 0 -140.5 54t-56.5 133zM504 637h227l-117 633zM666 1823q0 77 54 132.5t134 55.5q85 0 144 -56 t59 -132q0 -78 -58.5 -132.5t-144.5 -54.5q-77 0 -132.5 54.5t-55.5 132.5z" />
<glyph unicode="&#xc5;" horiz-adv-x="1271" d="M-2 0l395 1452q-51 73 -51 168q0 118 81.5 203.5t194.5 85.5q114 0 196.5 -85.5t82.5 -203.5q0 -89 -49 -160l422 -1460h-381l-101 360h-339l-101 -360h-350zM504 637h227l-117 633zM553 1620q0 -98 65 -98h7q59 5 59 98q0 44 -17 72t-49 28q-65 0 -65 -100z" />
<glyph unicode="&#xc6;" horiz-adv-x="1589" d="M-127 0l789 1522h841v-283h-459l33 -311h367v-281h-340l41 -364h387v-283h-676l-37 420h-350l-184 -420h-412zM582 678h221l-49 549z" />
<glyph unicode="&#xc7;" horiz-adv-x="1017" d="M55 743q0 134 19.5 249t67 220t120.5 179t187.5 117.5t261.5 43.5q126 0 288 -43l-45 -284q-130 39 -237 39q-154 0 -225.5 -118t-71.5 -366q0 -520 299 -520q51 0 121 12t127 35l34 -289q-138 -39 -272 -45l-10 -94q162 -61 162 -215q0 -62 -25 -107.5t-68 -71 t-93.5 -37t-108.5 -11.5q-89 0 -172 22l45 168q70 -18 104 -18q43 0 68.5 16t25.5 47q0 73 -133 82l23 234q-492 85 -492 755z" />
<glyph unicode="&#xc8;" horiz-adv-x="1062" d="M121 0v1522h856v-283h-508v-317h459v-281h-459v-358h537v-283h-885zM272 1960l277 151l215 -397l-211 -90z" />
<glyph unicode="&#xc9;" horiz-adv-x="1062" d="M121 0v1522h856v-283h-508v-317h459v-281h-459v-358h537v-283h-885zM365 1714l237 395l244 -157l-299 -328z" />
<glyph unicode="&#xca;" horiz-adv-x="1062" d="M121 0v1522h856v-283h-508v-317h459v-281h-459v-358h537v-283h-885zM184 1726l369 349l381 -334l-170 -131l-209 162l-209 -162z" />
<glyph unicode="&#xcb;" horiz-adv-x="1062" d="M109 1823q0 79 58 133.5t138 54.5q82 0 137.5 -56t55.5 -132q0 -80 -57.5 -133.5t-135.5 -53.5q-84 0 -140 54t-56 133zM121 0v1522h856v-283h-508v-317h459v-281h-459v-358h537v-283h-885zM600 1823q0 77 54 132.5t134 55.5q85 0 144 -56t59 -132q0 -78 -58.5 -132.5 t-144.5 -54.5q-77 0 -132.5 54.5t-55.5 132.5z" />
<glyph unicode="&#xcc;" horiz-adv-x="602" d="M29 1960l276 151l215 -397l-211 -90zM125 0v1522h352v-1522h-352z" />
<glyph unicode="&#xcd;" horiz-adv-x="602" d="M119 1714l237 395l244 -157l-299 -328zM125 0v1522h352v-1522h-352z" />
<glyph unicode="&#xce;" horiz-adv-x="602" d="M-59 1726l368 349l381 -334l-170 -131l-209 162l-209 -162zM125 0v1522h352v-1522h-352z" />
<glyph unicode="&#xcf;" horiz-adv-x="602" d="M-135 1823q0 79 58 133.5t138 54.5q82 0 137.5 -56t55.5 -132q0 -80 -57.5 -133.5t-135.5 -53.5q-84 0 -140 54t-56 133zM125 0v1522h352v-1522h-352zM356 1823q0 76 54.5 132t134.5 56q85 0 144 -56t59 -132q0 -78 -58.5 -132.5t-144.5 -54.5q-77 0 -133 55t-56 132z " />
<glyph unicode="&#xd0;" horiz-adv-x="1298" d="M121 0v1522h469q653 0 653 -752q0 -141 -24.5 -258t-76.5 -213t-130.5 -161.5t-190.5 -101.5t-252 -36h-448zM242 1683v232h676v-232h-676zM469 283h117q158 0 229.5 112t71.5 361q0 258 -74.5 370.5t-261.5 112.5h-82v-956z" />
<glyph unicode="&#xd1;" horiz-adv-x="1372" d="M121 0v1522h258l541 -828v828h333v-1522h-258l-540 846v-846h-334zM334 1765q136 136 266 136q49 0 108.5 -27t96.5 -27q52 0 131 66l127 -131q-128 -160 -270 -160q-59 0 -117 27.5t-88 27.5q-48 0 -139 -65z" />
<glyph unicode="&#xd2;" horiz-adv-x="1345" d="M59 741q0 122 19 233.5t65.5 218.5t116.5 185.5t180 126t248 47.5q133 0 238 -43t171.5 -114.5t110 -172t61 -208t17.5 -230.5q0 -127 -17.5 -238.5t-62.5 -219.5t-115 -184.5t-182.5 -123.5t-257.5 -47q-592 0 -592 770zM399 1960l277 151l215 -397l-211 -90zM420 752 q0 -248 58.5 -374t195.5 -126q250 0 250 516q0 79 -4.5 141.5t-15 121t-29.5 101t-46.5 74.5t-67.5 48t-91 16q-73 0 -123.5 -37.5t-77.5 -110t-38 -161.5t-11 -209z" />
<glyph unicode="&#xd3;" horiz-adv-x="1345" d="M59 741q0 122 19 233.5t65.5 218.5t116.5 185.5t180 126t248 47.5q133 0 238 -43t171.5 -114.5t110 -172t61 -208t17.5 -230.5q0 -127 -17.5 -238.5t-62.5 -219.5t-115 -184.5t-182.5 -123.5t-257.5 -47q-592 0 -592 770zM420 752q0 -248 58.5 -374t195.5 -126 q250 0 250 516q0 79 -4.5 141.5t-15 121t-29.5 101t-46.5 74.5t-67.5 48t-91 16q-73 0 -123.5 -37.5t-77.5 -110t-38 -161.5t-11 -209zM492 1714l237 395l244 -157l-299 -328z" />
<glyph unicode="&#xd4;" horiz-adv-x="1345" d="M59 741q0 122 19 233.5t65.5 218.5t116.5 185.5t180 126t248 47.5q133 0 238 -43t171.5 -114.5t110 -172t61 -208t17.5 -230.5q0 -127 -17.5 -238.5t-62.5 -219.5t-115 -184.5t-182.5 -123.5t-257.5 -47q-592 0 -592 770zM313 1726l369 349l381 -334l-170 -131l-209 162 l-209 -162zM420 752q0 -248 58.5 -374t195.5 -126q250 0 250 516q0 79 -4.5 141.5t-15 121t-29.5 101t-46.5 74.5t-67.5 48t-91 16q-73 0 -123.5 -37.5t-77.5 -110t-38 -161.5t-11 -209z" />
<glyph unicode="&#xd5;" horiz-adv-x="1345" d="M59 741q0 122 19 233.5t65.5 218.5t116.5 185.5t180 126t248 47.5q133 0 238 -43t171.5 -114.5t110 -172t61 -208t17.5 -230.5q0 -127 -17.5 -238.5t-62.5 -219.5t-115 -184.5t-182.5 -123.5t-257.5 -47q-592 0 -592 770zM322 1765q136 136 266 136q49 0 108.5 -27 t96.5 -27q52 0 131 66l127 -131q-128 -160 -271 -160q-59 0 -117 27.5t-88 27.5q-48 0 -139 -65zM420 752q0 -248 58.5 -374t195.5 -126q250 0 250 516q0 79 -4.5 141.5t-15 121t-29.5 101t-46.5 74.5t-67.5 48t-91 16q-73 0 -123.5 -37.5t-77.5 -110t-38 -161.5t-11 -209z " />
<glyph unicode="&#xd6;" horiz-adv-x="1345" d="M59 741q0 122 19 233.5t65.5 218.5t116.5 185.5t180 126t248 47.5q133 0 238 -43t171.5 -114.5t110 -172t61 -208t17.5 -230.5q0 -127 -17.5 -238.5t-62.5 -219.5t-115 -184.5t-182.5 -123.5t-257.5 -47q-592 0 -592 770zM236 1823q0 79 58 133.5t138 54.5 q82 0 137.5 -56t55.5 -132q0 -80 -57.5 -133.5t-135.5 -53.5q-84 0 -140 54t-56 133zM420 752q0 -248 58.5 -374t195.5 -126q250 0 250 516q0 79 -4.5 141.5t-15 121t-29.5 101t-46.5 74.5t-67.5 48t-91 16q-73 0 -123.5 -37.5t-77.5 -110t-38 -161.5t-11 -209zM727 1823 q0 77 54 132.5t134 55.5q85 0 144 -56t59 -132q0 -78 -58.5 -132.5t-144.5 -54.5q-77 0 -132.5 54.5t-55.5 132.5z" />
<glyph unicode="&#xd7;" horiz-adv-x="1069" d="M43 954l201 205l291 -354l288 352l201 -207l-289 -348l291 -348l-203 -205l-288 350l-289 -350l-201 205l287 348z" />
<glyph unicode="&#xd8;" horiz-adv-x="1347" d="M-53 164l164 184q-52 164 -52 393q0 122 19 233.5t65.5 218.5t116.5 185.5t180 126t248 47.5q232 0 377 -129l139 158l205 -225l-176 -199q53 -162 53 -373q0 -127 -17.5 -238.5t-62.5 -219.5t-115 -184.5t-182.5 -123.5t-257.5 -47q-231 0 -368 115l-127 -145zM420 676 l436 491q-61 103 -186 103q-73 0 -123.5 -37.5t-77.5 -110t-38 -161.5t-11 -209v-76zM496 346q60 -94 178 -94q250 0 250 516v63z" />
<glyph unicode="&#xd9;" horiz-adv-x="1306" d="M117 492v1030h346v-961q0 -57 4 -97t16 -79t33 -62.5t57 -38t86 -14.5t84.5 15t54 38t30 63.5t13.5 78.5t3 96v961h346v-1026q0 -113 -32.5 -206.5t-98 -165.5t-173.5 -112.5t-251 -40.5q-142 0 -245 40.5t-161.5 114t-85 164t-26.5 202.5zM387 1960l277 151l215 -397 l-211 -90z" />
<glyph unicode="&#xda;" horiz-adv-x="1306" d="M117 492v1030h346v-961q0 -57 4 -97t16 -79t33 -62.5t57 -38t86 -14.5t84.5 15t54 38t30 63.5t13.5 78.5t3 96v961h346v-1026q0 -113 -32.5 -206.5t-98 -165.5t-173.5 -112.5t-251 -40.5q-142 0 -245 40.5t-161.5 114t-85 164t-26.5 202.5zM479 1714l238 395l244 -157 l-299 -328z" />
<glyph unicode="&#xdb;" horiz-adv-x="1306" d="M117 492v1030h346v-961q0 -57 4 -97t16 -79t33 -62.5t57 -38t86 -14.5t84.5 15t54 38t30 63.5t13.5 78.5t3 96v961h346v-1026q0 -113 -32.5 -206.5t-98 -165.5t-173.5 -112.5t-251 -40.5q-142 0 -245 40.5t-161.5 114t-85 164t-26.5 202.5zM299 1726l369 349l381 -334 l-170 -131l-209 162l-209 -162z" />
<glyph unicode="&#xdc;" horiz-adv-x="1306" d="M117 492v1030h346v-961q0 -57 4 -97t16 -79t33 -62.5t57 -38t86 -14.5t84.5 15t54 38t30 63.5t13.5 78.5t3 96v961h346v-1026q0 -113 -32.5 -206.5t-98 -165.5t-173.5 -112.5t-251 -40.5q-142 0 -245 40.5t-161.5 114t-85 164t-26.5 202.5zM223 1823q0 79 58.5 133.5 t138.5 54.5q82 0 137 -55.5t55 -132.5q0 -80 -57 -133.5t-135 -53.5q-84 0 -140.5 54t-56.5 133zM715 1823q0 77 54 132.5t134 55.5q85 0 144 -56t59 -132q0 -78 -58.5 -132.5t-144.5 -54.5q-77 0 -132.5 54.5t-55.5 132.5z" />
<glyph unicode="&#xdd;" horiz-adv-x="1136" d="M-51 1522h387l244 -670l249 670h361l-442 -1014v-508h-349v489zM393 1714l238 395l243 -157l-299 -328z" />
<glyph unicode="&#xde;" horiz-adv-x="1138" d="M131 0v1522h350v-265h70q126 0 225 -35.5t157 -89.5t95.5 -125t50.5 -134t13 -125q0 -65 -15 -130t-52.5 -132.5t-93 -119t-144 -84t-197.5 -32.5q-62 0 -109 8v-258h-350zM481 539q43 -11 97 -11q40 0 69 20t44.5 53t22.5 69.5t7 77.5q0 25 -1.5 44t-7.5 48t-20 49.5 t-35.5 40.5t-58 30.5t-84.5 10.5h-33v-432z" />
<glyph unicode="&#xdf;" horiz-adv-x="1163" d="M104 0v1133q0 171 53.5 295.5t168 196t280.5 71.5q215 0 339 -106.5t124 -270.5q0 -73 -16.5 -135t-40 -103.5t-47 -77t-40 -73.5t-16.5 -76t18.5 -74.5t46.5 -64t61 -66t61 -79t46.5 -104.5t18.5 -140q0 -84 -26.5 -150t-66.5 -104.5t-93.5 -63t-101.5 -33t-97 -8.5 q-74 0 -151 19.5t-133 50.5l83 280q63 -38 102.5 -55.5t76.5 -17.5q57 0 57 82q0 35 -19 69.5t-47 63.5t-61 67t-61 77.5t-47 98t-19 125.5t16.5 124.5t40.5 97.5t48 75.5t40.5 74.5t16.5 79q0 60 -29 103.5t-84 43.5q-76 0 -113.5 -80t-37.5 -212v-1133h-351z" />
<glyph unicode="&#xe0;" horiz-adv-x="968" d="M47 295q0 88 36 152.5t103 103.5t148.5 59.5t187.5 28.5v137q0 113 -110 113q-93 0 -256 -66l-68 250q218 76 389 76q112 0 190 -28.5t120 -82t59.5 -117t17.5 -145.5v-411q0 -122 31 -365h-279l-28 111q-5 -4 -32.5 -24t-38 -27t-37 -24t-44.5 -24t-44.5 -17t-53 -14 t-55.5 -4q-116 0 -176 91.5t-60 226.5zM174 1583l279 152l213 -398l-209 -90zM348 342q0 -57 24 -90t60 -33q35 0 92 47v187q-41 -4 -66 -8.5t-53.5 -16t-42.5 -33t-14 -53.5z" />
<glyph unicode="&#xe1;" horiz-adv-x="968" d="M47 295q0 88 36 152.5t103 103.5t148.5 59.5t187.5 28.5v137q0 113 -110 113q-93 0 -256 -66l-68 250q218 76 389 76q112 0 190 -28.5t120 -82t59.5 -117t17.5 -145.5v-411q0 -122 31 -365h-279l-28 111q-5 -4 -32.5 -24t-38 -27t-37 -24t-44.5 -24t-44.5 -17t-53 -14 t-55.5 -4q-116 0 -176 91.5t-60 226.5zM322 1337l239 396l240 -158l-297 -328zM348 342q0 -57 24 -90t60 -33q35 0 92 47v187q-41 -4 -66 -8.5t-53.5 -16t-42.5 -33t-14 -53.5z" />
<glyph unicode="&#xe2;" horiz-adv-x="968" d="M47 295q0 88 36 152.5t103 103.5t148.5 59.5t187.5 28.5v137q0 113 -110 113q-93 0 -256 -66l-68 250q218 76 389 76q112 0 190 -28.5t120 -82t59.5 -117t17.5 -145.5v-411q0 -122 31 -365h-279l-28 111q-5 -4 -32.5 -24t-38 -27t-37 -24t-44.5 -24t-44.5 -17t-53 -14 t-55.5 -4q-116 0 -176 91.5t-60 226.5zM109 1350l368 348l381 -332l-170 -135l-207 164l-211 -164zM348 342q0 -57 24 -90t60 -33q35 0 92 47v187q-41 -4 -66 -8.5t-53.5 -16t-42.5 -33t-14 -53.5z" />
<glyph unicode="&#xe3;" horiz-adv-x="968" d="M47 295q0 88 36 152.5t103 103.5t148.5 59.5t187.5 28.5v137q0 113 -110 113q-93 0 -256 -66l-68 250q218 76 389 76q112 0 190 -28.5t120 -82t59.5 -117t17.5 -145.5v-411q0 -122 31 -365h-279l-28 111q-5 -4 -32.5 -24t-38 -27t-37 -24t-44.5 -24t-44.5 -17t-53 -14 t-55.5 -4q-116 0 -176 91.5t-60 226.5zM109 1425q132 138 266 138q47 0 80.5 -13.5t58 -27t49.5 -13.5q66 0 148 66l125 -131q-130 -162 -271 -162q-42 0 -74.5 9t-47.5 19.5t-33.5 19.5t-36.5 9q-29 0 -62 -15.5t-90 -51.5zM348 342q0 -57 24 -90t60 -33q35 0 92 47v187 q-41 -4 -66 -8.5t-53.5 -16t-42.5 -33t-14 -53.5z" />
<glyph unicode="&#xe4;" horiz-adv-x="968" d="M47 295q0 88 36 152.5t103 103.5t148.5 59.5t187.5 28.5v137q0 113 -110 113q-93 0 -256 -66l-68 250q218 76 389 76q112 0 190 -28.5t120 -82t59.5 -117t17.5 -145.5v-411q0 -122 31 -365h-279l-28 111q-5 -4 -32.5 -24t-38 -27t-37 -24t-44.5 -24t-44.5 -17t-53 -14 t-55.5 -4q-116 0 -176 91.5t-60 226.5zM76 1454q0 77 51 128.5t129 51.5q72 0 124 -54t52 -126q0 -75 -52.5 -126.5t-123.5 -51.5q-78 0 -129 51t-51 127zM348 342q0 -57 24 -90t60 -33q35 0 92 47v187q-41 -4 -66 -8.5t-53.5 -16t-42.5 -33t-14 -53.5zM530 1454 q0 73 49 126.5t123 53.5q77 0 131 -54t54 -126q0 -75 -54 -126.5t-131 -51.5q-73 0 -122.5 51.5t-49.5 126.5z" />
<glyph unicode="&#xe5;" horiz-adv-x="968" d="M47 295q0 88 36 152.5t103 103.5t148.5 59.5t187.5 28.5v137q0 113 -110 113q-93 0 -256 -66l-68 250q218 76 389 76q112 0 190 -28.5t120 -82t59.5 -117t17.5 -145.5v-411q0 -122 31 -365h-279l-28 111q-5 -4 -32.5 -24t-38 -27t-37 -24t-44.5 -24t-44.5 -17t-53 -14 t-55.5 -4q-116 0 -176 91.5t-60 226.5zM207 1522q0 118 81.5 203t194.5 85q114 0 196.5 -85t82.5 -203q0 -119 -82 -203t-197 -84q-114 0 -195 84t-81 203zM348 342q0 -57 24 -90t60 -33q35 0 92 47v187q-41 -4 -66 -8.5t-53.5 -16t-42.5 -33t-14 -53.5zM418 1522 q0 -41 18.5 -70t46.5 -29q25 0 45.5 30t20.5 69q0 41 -20 70.5t-46 29.5q-28 0 -46.5 -29t-18.5 -71z" />
<glyph unicode="&#xe6;" horiz-adv-x="1388" d="M53 281q0 78 24 139t65 101.5t102.5 68.5t130 43t153.5 22v115q0 56 -29 87.5t-79 31.5q-95 0 -258 -66l-68 250q218 76 385 76q146 0 238 -107q73 61 123.5 84t103.5 23q119 0 207 -66.5t131 -176t43 -247.5q0 -36 -2 -63t-6 -61t-6 -50h-496q5 -54 15 -95t30 -78.5 t54.5 -58t82.5 -20.5q83 0 238 82l76 -249q-170 -95 -361 -95q-206 0 -311 129q-161 -123 -317 -123q-129 0 -199 85t-70 219zM352 334q0 -47 27 -81t65 -34q48 0 115 45q-28 99 -33 205q-75 -7 -124.5 -39t-49.5 -96zM791 690h223q0 223 -113 223q-53 0 -81.5 -67 t-28.5 -156z" />
<glyph unicode="&#xe7;" horiz-adv-x="835" d="M51 547q0 312 126 453t366 141q148 0 266 -43l-59 -277q-93 49 -183 49q-78 0 -119.5 -63.5t-41.5 -224.5q0 -164 44 -249t125 -85q37 0 88 17t91 38l61 -254q-97 -54 -256 -67l-12 -103q162 -61 162 -215q0 -62 -25 -107.5t-68 -71t-93.5 -37t-108.5 -11.5 q-89 0 -172 22l45 168q70 -18 104 -18q43 0 68.5 16t25.5 47q0 73 -133 82l23 236q-324 68 -324 557z" />
<glyph unicode="&#xe8;" horiz-adv-x="942" d="M57 559q0 590 437 590q110 0 191.5 -38.5t127 -107.5t67 -153t21.5 -186q0 -96 -14 -179h-527q13 -141 58 -195t139 -54q89 0 252 75l76 -248q-189 -92 -371 -92q-104 0 -184 30t-131 81t-83.5 127t-45.5 161t-13 189zM186 1583l279 152l213 -398l-209 -90zM354 690h234 q2 112 -24 170t-95 58q-56 0 -83.5 -53.5t-31.5 -174.5z" />
<glyph unicode="&#xe9;" horiz-adv-x="942" d="M57 559q0 590 437 590q110 0 191.5 -38.5t127 -107.5t67 -153t21.5 -186q0 -96 -14 -179h-527q13 -141 58 -195t139 -54q89 0 252 75l76 -248q-189 -92 -371 -92q-104 0 -184 30t-131 81t-83.5 127t-45.5 161t-13 189zM332 1337l239 396l240 -158l-297 -328zM354 690h234 q2 112 -24 170t-95 58q-56 0 -83.5 -53.5t-31.5 -174.5z" />
<glyph unicode="&#xea;" horiz-adv-x="942" d="M57 559q0 590 437 590q110 0 191.5 -38.5t127 -107.5t67 -153t21.5 -186q0 -96 -14 -179h-527q13 -141 58 -195t139 -54q89 0 252 75l76 -248q-189 -92 -371 -92q-104 0 -184 30t-131 81t-83.5 127t-45.5 161t-13 189zM121 1350l368 348l381 -332l-170 -135l-206 164 l-211 -164zM354 690h234q2 112 -24 170t-95 58q-56 0 -83.5 -53.5t-31.5 -174.5z" />
<glyph unicode="&#xeb;" horiz-adv-x="942" d="M57 559q0 590 437 590q110 0 191.5 -38.5t127 -107.5t67 -153t21.5 -186q0 -96 -14 -179h-527q13 -141 58 -195t139 -54q89 0 252 75l76 -248q-189 -92 -371 -92q-104 0 -184 30t-131 81t-83.5 127t-45.5 161t-13 189zM86 1454q0 77 51 128.5t129 51.5q72 0 124 -54 t52 -126q0 -75 -52.5 -126.5t-123.5 -51.5q-78 0 -129 51t-51 127zM354 690h234q2 112 -24 170t-95 58q-56 0 -83.5 -53.5t-31.5 -174.5zM541 1454q0 73 49 126.5t123 53.5q77 0 130.5 -54t53.5 -126q0 -75 -53.5 -126.5t-130.5 -51.5q-73 0 -122.5 51.5t-49.5 126.5z" />
<glyph unicode="&#xec;" horiz-adv-x="567" d="M-18 1583l278 152l213 -398l-209 -90zM109 0v1120h350v-1120h-350z" />
<glyph unicode="&#xed;" horiz-adv-x="567" d="M109 0v1120h350v-1120h-350zM127 1337l240 396l239 -158l-297 -328z" />
<glyph unicode="&#xee;" horiz-adv-x="567" d="M-84 1350l369 348l381 -332l-170 -135l-207 164l-211 -164zM109 0v1120h350v-1120h-350z" />
<glyph unicode="&#xef;" horiz-adv-x="567" d="M-119 1454q0 77 51 128.5t129 51.5q73 0 125 -54.5t52 -125.5q0 -75 -53 -126.5t-124 -51.5q-77 0 -128.5 51t-51.5 127zM109 0v1120h350v-1120h-350zM336 1454q0 73 49 126.5t123 53.5q77 0 130.5 -54t53.5 -126q0 -75 -53.5 -126.5t-130.5 -51.5q-73 0 -122.5 51.5 t-49.5 126.5z" />
<glyph unicode="&#xf0;" horiz-adv-x="1083" d="M53 457q0 119 36 216t96.5 157t138 93t164 32t169.5 -35q-25 116 -75 213l-127 -113l-125 154l137 120q-95 98 -229 148l122 264q199 -70 342 -207l172 148l115 -156l-160 -141q103 -148 157 -331.5t54 -381.5q0 -118 -17 -217t-55 -183t-96 -142.5t-142.5 -91 t-190.5 -32.5q-225 0 -355.5 132t-130.5 354zM420 485q0 -98 34.5 -162.5t94.5 -64.5q41 0 69.5 29.5t42.5 83.5t19.5 113.5t5.5 136.5q0 13 -1 39.5t-1 41.5q-112 44 -188 -11t-76 -206z" />
<glyph unicode="&#xf1;" horiz-adv-x="1120" d="M104 0v1120h308l18 -100q183 129 326 129q132 0 197 -77t65 -267v-805h-348v729q0 62 -18 87.5t-56 25.5q-64 0 -143 -72v-770h-349zM203 1425q132 138 266 138q47 0 80.5 -13.5t58 -27t49.5 -13.5q66 0 148 66l125 -131q-130 -162 -271 -162q-42 0 -74.5 9t-47.5 19.5 t-33.5 19.5t-36.5 9q-29 0 -62 -15.5t-90 -51.5z" />
<glyph unicode="&#xf2;" horiz-adv-x="1073" d="M53 551q0 134 27.5 240t85 188t154.5 126t229 44q105 0 186 -29.5t134 -80.5t87 -125t48 -156t14 -180q0 -135 -28.5 -244t-87 -191t-154 -127t-222.5 -45q-125 0 -217 42t-147.5 121t-82 182.5t-26.5 234.5zM238 1583l278 152l213 -398l-209 -90zM403 573 q0 -176 33 -254.5t103 -78.5q68 0 98.5 80t30.5 245q0 164 -31 241t-100 77q-70 0 -102 -71t-32 -239z" />
<glyph unicode="&#xf3;" horiz-adv-x="1073" d="M53 551q0 134 27.5 240t85 188t154.5 126t229 44q105 0 186 -29.5t134 -80.5t87 -125t48 -156t14 -180q0 -135 -28.5 -244t-87 -191t-154 -127t-222.5 -45q-125 0 -217 42t-147.5 121t-82 182.5t-26.5 234.5zM383 1337l240 396l239 -158l-297 -328zM403 573 q0 -176 33 -254.5t103 -78.5q68 0 98.5 80t30.5 245q0 164 -31 241t-100 77q-70 0 -102 -71t-32 -239z" />
<glyph unicode="&#xf4;" horiz-adv-x="1073" d="M53 551q0 134 27.5 240t85 188t154.5 126t229 44q105 0 186 -29.5t134 -80.5t87 -125t48 -156t14 -180q0 -135 -28.5 -244t-87 -191t-154 -127t-222.5 -45q-125 0 -217 42t-147.5 121t-82 182.5t-26.5 234.5zM172 1350l369 348l381 -332l-170 -135l-207 164l-211 -164z M403 573q0 -176 33 -254.5t103 -78.5q68 0 98.5 80t30.5 245q0 164 -31 241t-100 77q-70 0 -102 -71t-32 -239z" />
<glyph unicode="&#xf5;" horiz-adv-x="1073" d="M53 551q0 134 27.5 240t85 188t154.5 126t229 44q105 0 186 -29.5t134 -80.5t87 -125t48 -156t14 -180q0 -135 -28.5 -244t-87 -191t-154 -127t-222.5 -45q-125 0 -217 42t-147.5 121t-82 182.5t-26.5 234.5zM170 1425q132 138 266 138q60 0 111.5 -27t77.5 -27 q65 0 147 66l125 -131q-130 -162 -270 -162q-42 0 -74.5 9t-48 19.5t-34 19.5t-36.5 9q-29 0 -61.5 -15t-89.5 -52zM403 573q0 -176 33 -254.5t103 -78.5q68 0 98.5 80t30.5 245q0 164 -31 241t-100 77q-70 0 -102 -71t-32 -239z" />
<glyph unicode="&#xf6;" horiz-adv-x="1073" d="M53 551q0 134 27.5 240t85 188t154.5 126t229 44q105 0 186 -29.5t134 -80.5t87 -125t48 -156t14 -180q0 -135 -28.5 -244t-87 -191t-154 -127t-222.5 -45q-125 0 -217 42t-147.5 121t-82 182.5t-26.5 234.5zM137 1454q0 77 51 128.5t129 51.5q73 0 125 -54.5t52 -125.5 q0 -75 -53 -126.5t-124 -51.5q-77 0 -128.5 51t-51.5 127zM403 573q0 -176 33 -254.5t103 -78.5q68 0 98.5 80t30.5 245q0 164 -31 241t-100 77q-70 0 -102 -71t-32 -239zM592 1454q0 73 49 126.5t123 53.5q77 0 130.5 -54t53.5 -126q0 -75 -53.5 -126.5t-130.5 -51.5 q-73 0 -122.5 51.5t-49.5 126.5z" />
<glyph unicode="&#xf7;" horiz-adv-x="1069" d="M88 559l827 365l95 -256l-828 -365zM229 1071q0 80 58.5 139.5t144.5 59.5q83 0 140 -59.5t57 -139.5q0 -84 -58.5 -144.5t-138.5 -60.5q-85 0 -144 60t-59 145zM520 176q0 80 58.5 139.5t144.5 59.5q83 0 140 -59.5t57 -139.5q0 -84 -58.5 -144.5t-138.5 -60.5 q-85 0 -144 60t-59 145z" />
<glyph unicode="&#xf8;" horiz-adv-x="1073" d="M-104 166l178 172q-21 94 -21 213q0 134 27.5 240t85 188t154.5 126t229 44q164 0 274 -76l127 123l234 -244l-185 -176q19 -100 19 -198q0 -135 -28.5 -244t-87 -191t-154 -127t-222.5 -45q-164 0 -276 76l-127 -125zM403 573q0 -176 33 -254.5t103 -78.5q68 0 98.5 80 t30.5 245q0 164 -31 241t-100 77q-70 0 -102 -71t-32 -239z" />
<glyph unicode="&#xf9;" d="M102 315v805h349v-729q0 -62 17.5 -87t55.5 -25q66 0 144 71v770h348v-1120h-307l-19 98q-183 -127 -325 -127q-65 0 -111.5 17t-81.5 56.5t-52.5 106.5t-17.5 164zM246 1583l278 152l213 -398l-209 -90z" />
<glyph unicode="&#xfa;" d="M102 315v805h349v-729q0 -62 17.5 -87t55.5 -25q66 0 144 71v770h348v-1120h-307l-19 98q-183 -127 -325 -127q-65 0 -111.5 17t-81.5 56.5t-52.5 106.5t-17.5 164zM393 1337l240 396l239 -158l-297 -328z" />
<glyph unicode="&#xfb;" d="M102 315v805h349v-729q0 -62 17.5 -87t55.5 -25q66 0 144 71v770h348v-1120h-307l-19 98q-183 -127 -325 -127q-65 0 -111.5 17t-81.5 56.5t-52.5 106.5t-17.5 164zM180 1350l369 348l381 -332l-170 -135l-207 164l-211 -164z" />
<glyph unicode="&#xfc;" d="M102 315v805h349v-729q0 -62 17.5 -87t55.5 -25q66 0 144 71v770h348v-1120h-307l-19 98q-183 -127 -325 -127q-65 0 -111.5 17t-81.5 56.5t-52.5 106.5t-17.5 164zM145 1454q0 77 51.5 128.5t129.5 51.5q72 0 124 -54t52 -126q0 -75 -52.5 -126.5t-123.5 -51.5 q-78 0 -129.5 51.5t-51.5 126.5zM600 1454q0 73 49 126.5t123 53.5q77 0 130.5 -54t53.5 -126q0 -75 -53.5 -126.5t-130.5 -51.5q-73 0 -122.5 51.5t-49.5 126.5z" />
<glyph unicode="&#xfd;" horiz-adv-x="987" d="M-25 1120h371l170 -760l154 760h360l-323 -1124q-32 -111 -77.5 -198.5t-92 -143.5t-109 -100t-115 -68.5t-123.5 -48.5l-124 278q119 53 196 129.5t111 186.5l22 73h-121zM360 1337l240 396l240 -158l-297 -328z" />
<glyph unicode="&#xfe;" horiz-adv-x="1093" d="M106 -543v2208h349v-557q78 41 151 41q203 0 322 -160t119 -411q0 -163 -61 -301t-177 -222t-262 -84q-24 0 -90 17v-531h-351zM455 291q56 -35 77 -35q48 0 83 49t50 114.5t15 133.5q0 63 -6 115t-19.5 98t-39 72t-60.5 26q-22 0 -50.5 -13t-49.5 -38v-522z" />
<glyph unicode="&#xff;" horiz-adv-x="987" d="M-25 1120h371l170 -760l154 760h360l-323 -1124q-32 -111 -77.5 -198.5t-92 -143.5t-109 -100t-115 -68.5t-123.5 -48.5l-124 278q119 53 196 129.5t111 186.5l22 73h-121zM115 1454q0 77 51 128.5t129 51.5q72 0 124 -54t52 -126q0 -75 -52.5 -126.5t-123.5 -51.5 q-77 0 -128.5 51t-51.5 127zM569 1454q0 73 49 126.5t123 53.5q77 0 131 -54t54 -126q0 -75 -54 -126.5t-131 -51.5q-73 0 -122.5 51.5t-49.5 126.5z" />
<glyph unicode="&#x152;" horiz-adv-x="1783" d="M59 758q0 64 6.5 129t24.5 145t47 150.5t78.5 139.5t114 118.5t158 79.5t206.5 30q41 0 150 -14t188 -14h660v-283h-523v-295h482v-280h-482v-381h560v-283h-658q-32 0 -177 -15.5t-196 -15.5q-114 0 -209 32t-159.5 83.5t-114.5 122.5t-79 142.5t-47 150.5t-24 140.5 t-6 117.5zM426 758q0 -45 1.5 -81t7 -90.5t16 -96.5t30.5 -88t47.5 -76t70 -50t95.5 -20q69 0 131 16v969q-43 21 -131 21q-50 0 -90.5 -19t-67.5 -50t-48 -75t-32.5 -88t-18.5 -96.5t-9 -92.5t-2 -83z" />
<glyph unicode="&#x153;" horiz-adv-x="1521" d="M37 563q0 41 5.5 87.5t20 104.5t37 112t60.5 106t86.5 90.5t118.5 62t153 23.5q86 0 151 -42.5t128 -119.5q117 162 278 162q98 0 177 -42.5t127.5 -114.5t74.5 -160t27 -185q0 -21 -2 -44t-4.5 -38t-8 -47t-8.5 -49h-506q23 -99 66.5 -167.5t93.5 -68.5q67 0 127 19 t145 63l80 -245q-170 -99 -387 -99q-157 0 -284 174q-64 -80 -132.5 -127t-154.5 -47q-82 0 -151 23t-116.5 60t-84.5 89t-58.5 105t-35 112.5t-18.5 108t-5 94.5zM401 573q0 -317 111 -317q32 0 54.5 23t33.5 53t17 78.5t7 78.5t1 74q0 46 -4.5 91.5t-15.5 97t-35 83 t-58 31.5q-111 0 -111 -293zM952 674h215q2 105 -26.5 172t-83.5 67t-80 -65.5t-25 -173.5z" />
<glyph unicode="&#x178;" horiz-adv-x="1136" d="M-51 1522h387l244 -670l249 670h361l-442 -1014v-508h-349v489zM139 1823q0 79 58.5 133.5t138.5 54.5q82 0 137 -55.5t55 -132.5q0 -80 -57 -133.5t-135 -53.5q-84 0 -140.5 54t-56.5 133zM631 1823q0 77 54 132.5t134 55.5q85 0 144 -56t59 -132q0 -78 -58.5 -132.5 t-144.5 -54.5q-77 0 -132.5 54.5t-55.5 132.5z" />
<glyph unicode="&#x2c6;" horiz-adv-x="505" d="M-143 1350l368 348l381 -332l-170 -135l-207 164l-211 -164z" />
<glyph unicode="&#x2dc;" horiz-adv-x="589" d="M-74 1425q132 138 267 138q47 0 80.5 -13.5t58 -27t49.5 -13.5q65 0 147 66l125 -131q-130 -162 -270 -162q-42 0 -74.5 9t-48 19.5t-34 19.5t-36.5 9q-29 0 -61.5 -15t-89.5 -52z" />
<glyph unicode="&#x2000;" horiz-adv-x="1055" />
<glyph unicode="&#x2001;" horiz-adv-x="2111" />
<glyph unicode="&#x2002;" horiz-adv-x="1055" />
<glyph unicode="&#x2003;" horiz-adv-x="2111" />
<glyph unicode="&#x2004;" horiz-adv-x="703" />
<glyph unicode="&#x2005;" horiz-adv-x="527" />
<glyph unicode="&#x2006;" horiz-adv-x="351" />
<glyph unicode="&#x2007;" horiz-adv-x="351" />
<glyph unicode="&#x2008;" horiz-adv-x="263" />
<glyph unicode="&#x2009;" horiz-adv-x="422" />
<glyph unicode="&#x200a;" horiz-adv-x="117" />
<glyph unicode="&#x2010;" horiz-adv-x="768" d="M61 516v281h646v-281h-646z" />
<glyph unicode="&#x2011;" horiz-adv-x="768" d="M61 516v281h646v-281h-646z" />
<glyph unicode="&#x2012;" horiz-adv-x="768" d="M61 516v281h646v-281h-646z" />
<glyph unicode="&#x2013;" horiz-adv-x="1146" d="M61 516v281h1022v-281h-1022z" />
<glyph unicode="&#x2014;" horiz-adv-x="1792" d="M61 516v281h1668v-281h-1668z" />
<glyph unicode="&#x2018;" horiz-adv-x="563" d="M90 1329q0 135 69 258.5t203 255.5l195 -174q-69 -75 -99 -127t-30 -104q0 -27 13.5 -51.5t29.5 -42t29.5 -50t13.5 -73.5q0 -79 -56.5 -130t-140.5 -51q-107 0 -167 80.5t-60 208.5z" />
<glyph unicode="&#x2019;" horiz-adv-x="563" d="M47 1143q69 75 99 127t30 104q0 27 -13.5 51.5t-29.5 42t-29.5 50t-13.5 73.5q0 79 56.5 130t140.5 51q107 0 167 -80.5t60 -208.5q0 -135 -69 -258.5t-203 -255.5z" />
<glyph unicode="&#x201a;" horiz-adv-x="555" d="M45 -250q69 75 99 127.5t30 104.5q0 27 -13.5 51.5t-29.5 42t-29.5 50t-13.5 73.5q0 79 56.5 129.5t140.5 50.5q107 0 167 -80.5t60 -208.5q0 -135 -69 -258.5t-203 -255.5z" />
<glyph unicode="&#x201c;" horiz-adv-x="1075" d="M90 1329q0 135 69 258.5t203 255.5l195 -174q-69 -75 -99 -127t-30 -104q0 -27 13.5 -51.5t29.5 -42t29.5 -50t13.5 -73.5q0 -79 -56.5 -130t-140.5 -51q-107 0 -167 80.5t-60 208.5zM606 1329q0 135 69.5 258.5t203.5 255.5l194 -174q-69 -75 -99 -127t-30 -104 q0 -27 13.5 -51.5t29.5 -42t29.5 -50t13.5 -73.5q0 -79 -56 -130t-140 -51q-107 0 -167.5 80.5t-60.5 208.5z" />
<glyph unicode="&#x201d;" horiz-adv-x="1075" d="M47 1143q69 75 99 127t30 104q0 27 -13.5 51.5t-29.5 42t-29.5 50t-13.5 73.5q0 79 56.5 130t140.5 51q107 0 167 -80.5t60 -208.5q0 -135 -69 -258.5t-203 -255.5zM565 1143q69 75 99 127t30 104q0 27 -13.5 51.5t-29.5 42t-29.5 50t-13.5 73.5q0 79 56.5 130t140.5 51 q107 0 167 -80.5t60 -208.5q0 -135 -69 -258.5t-203 -255.5z" />
<glyph unicode="&#x201e;" horiz-adv-x="1062" d="M45 -246q69 75 99 127.5t30 104.5q0 27 -13.5 51.5t-29.5 42t-29.5 50t-13.5 73.5q0 79 56.5 129.5t140.5 50.5q107 0 167 -80.5t60 -208.5q0 -135 -69 -258.5t-203 -255.5zM565 -246q69 75 99 127.5t30 104.5q0 27 -13.5 51.5t-29.5 42t-29.5 50t-13.5 73.5 q0 79 56.5 129.5t140.5 50.5q107 0 167 -80.5t60 -208.5q0 -135 -69 -258.5t-203 -255.5z" />
<glyph unicode="&#x2022;" horiz-adv-x="768" d="M-47 709q0 177 127.5 304.5t306.5 127.5q115 0 214 -58.5t157.5 -158t58.5 -215.5q0 -176 -127.5 -303t-302.5 -127q-180 0 -307 126.5t-127 303.5z" />
<glyph unicode="&#x2026;" horiz-adv-x="1652" d="M92 176q0 80 58.5 139.5t144.5 59.5q83 0 140 -59.5t57 -139.5q0 -84 -58.5 -144.5t-138.5 -60.5q-85 0 -144 60t-59 145zM641 176q0 80 58.5 139.5t144.5 59.5q83 0 139.5 -59.5t56.5 -139.5q0 -84 -58 -144.5t-138 -60.5q-85 0 -144 60t-59 145zM1194 176 q0 80 58.5 139.5t144.5 59.5q83 0 139.5 -59.5t56.5 -139.5q0 -84 -58 -144.5t-138 -60.5q-85 0 -144 60t-59 145z" />
<glyph unicode="&#x202f;" horiz-adv-x="422" />
<glyph unicode="&#x2039;" horiz-adv-x="780" d="M55 565l377 490l273 -103l-230 -389l230 -381l-273 -108z" />
<glyph unicode="&#x203a;" horiz-adv-x="782" d="M76 174l250 393l-248 377l270 113l379 -492l-379 -489z" />
<glyph unicode="&#x205f;" horiz-adv-x="527" />
<glyph unicode="&#x20ac;" horiz-adv-x="1101" d="M55 467v248h119v24q0 51 2 76h-121v250h154q26 108 70.5 194.5t111 153t161 103t210.5 36.5q141 0 309 -69l-88 -285q-123 68 -195 68q-35 0 -62 -6.5t-57.5 -25.5t-55 -61.5t-40.5 -107.5h291v-250h-317v-43v-57h317v-248h-289q52 -211 197 -211q87 0 229 68l86 -279 q-192 -74 -348 -74q-227 0 -361 132t-179 364h-144z" />
<glyph unicode="&#x2122;" horiz-adv-x="1542" d="M-45 1460v205h659v-205h-208v-649h-242v649h-209zM580 813l61 852h213l182 -483l187 483h207l61 -852h-250l-18 412l-140 -412h-104l-143 414l-31 -414h-225z" />
<glyph unicode="&#xe000;" horiz-adv-x="1116" d="M0 0v1116h1116v-1116h-1116z" />
</font>
</defs>
</svg>
